---------------------------------------------------------------------------------------
                                        Smokie
                               
                               Rock  Away Your Teardrops

---------------------------------------------------------------------------------------


Release Date: 01-Mar-2004
Total Tracktime: 0h 44m 16s
    
Track  1

     Filename L:Ripped Music 1. Smokie - My Heart Is True.wav

     Peak level 97.8 %
     Track quality 99.9 %
     Copy CRC 68445728
     Track not present in AccurateRip database
     Copy OK

Track  2

     Filename L:Ripped Music 2. Smokie - Cry In The Night.wav

     Peak level 100.0 %
     Track quality 99.9 %
     Copy CRC 99FAAA96
     Track not present in AccurateRip database
     Copy OK

Track  3

     Filename L:Ripped Music 3. Smokie - Hold On For The Night.wav

     Peak level 100.0 %
     Track quality 100.0 %
     Copy CRC 0FD66BF6
     Track not present in AccurateRip database
     Copy OK

Track  4

     Filename L:Ripped Music 4. Smokie - Never Flight Again.wav

     Peak level 99.9 %
     Track quality 99.9 %
     Copy CRC 56AD1A85
     Track not present in AccurateRip database
     Copy OK

Track  5

     Filename L:Ripped Music 5. Smokie - Rock Away Your Teardrops.wav

     Peak level 97.5 %
     Track quality 100.0 %
     Copy CRC 869C0EA1
     Track not present in AccurateRip database
     Copy OK

Track  6

     Filename L:Ripped Music 6. Smokie - Second Coice.wav

     Peak level 100.0 %
     Track quality 100.0 %
     Copy CRC 3782FDC9
     Track not present in AccurateRip database
     Copy OK

Track  7

     Filename L:Ripped Music 7. Smokie - Hold On Tight.wav

     Peak level 100.0 %
     Track quality 100.0 %
     Copy CRC 0D6E7370
     Track not present in AccurateRip database
     Copy OK

Track  8

     Filename L:Ripped Music 8. Smokie - Only Love Hurts.wav

     Peak level 99.9 %
     Track quality 100.0 %
     Copy CRC A2D6DFE4
     Track not present in AccurateRip database
     Copy OK

Track  9

     Filename L:Ripped Music 9. Smokie - Looking Daggers.wav

     Peak level 100.0 %
     Track quality 100.0 %
     Copy CRC 67CF8E56
     Track not present in AccurateRip database
     Copy OK

Track 10

     Filename L:Ripped Music10. Smokie - Hot Girls And Summer Nights.wav

     Peak level 100.0 %
     Track quality 100.0 %
     Copy CRC 202790D1
     Track not present in AccurateRip database
     Copy OK

Track 11

     Filename L:Ripped Music11. Smokie - If You Think You Know How To Love Me.wav

     Peak level 100.0 %
     Track quality 100.0 %
     Copy CRC 92A1A265
     Track not present in AccurateRip database
     Copy OK

---------------------------------------------------------------------------------------

Exact Audio Copy V0.99 prebeta 5 from 4. May 2009

EAC extraction logfile from 19. May 2009, 1:30

Smokie / Rock Away Your Teardrops

Used drive  : HL-DT-STDVD-RAM GSA-H58N   Adapter: 0  ID: 0

Read mode               : Secure
Utilize accurate stream : Yes
Defeat audio cache      : No
Make use of C2 pointers : No

Read offset correction                      : 102
Overread into Lead-In and Lead-Out          : No
Fill up missing offset samples with silence : Yes
Delete leading and trailing silent blocks   : No
Null samples used in CRC calculations       : No
Used interface                              : Native Win32 interface for Win NT & 2000
Gap handling                                : Not detected, thus appended to previous track

Used output format              : User Defined Encoder
Selected bitrate                : 1024 kBit/s
Quality                         : High
Add ID3 tag                     : No
Command line compressor         : C:Program FilesExact Audio CopyFLACFLAC.EXE
Additional command line options : -6 -V -T "ARTIST=%a" -T "TITLE=%t" -T "ALBUM=%g" -T "DATE=%y" -T "TRACKNUMBER=%n" -T "GENRE=%m" -T "COMMENT=%e" %s -o %d


---------------------------------------------------------------------------------------

         
           TOC of the extracted CD

     Track |   Start  |  Length  | Start sector | End sector 
    ---------------------------------------------------------
        1  |  0:00.00 |  3:36.62 |         0    |    16261   
        2  |  3:36.62 |  4:00.30 |     16262    |    34291   
        3  |  7:37.17 |  3:42.45 |     34292    |    50986   
        4  | 11:19.62 |  4:17.00 |     50987    |    70261   
        5  | 15:36.62 |  3:54.30 |     70262    |    87841   
        6  | 19:31.17 |  4:48.35 |     87842    |   109476   
        7  | 24:19.52 |  3:58.23 |    109477    |   127349   
        8  | 28:18.00 |  4:38.07 |    127350    |   148206   
        9  | 32:56.07 |  3:39.58 |    148207    |   164689   
       10  | 36:35.65 |  3:46.50 |    164690    |   181689   
       11  | 40:22.40 |  3:58.62 |    181690    |   199601      


---------------------------------------------------------------------------------------

Enjoy!

---------------------------------------------------------------------------------------
---------------------------------------------------------------------------------------
